<svg viewBox="0 0 330 200" xmlns="http://www.w3.org/2000/svg"><g><g><g><g><g><line x1="30.766000747680664" y1="176.89999961853027" x2="25.766000747680664" y2="176.89999961853027" style="visibility: inherit;" fill="rgb(0, 0, 0)" stroke="rgb(204, 204, 204)" stroke-width="1px"></line><line x1="30.766000747680664" y1="165.10666631062827" x2="25.766000747680664" y2="165.10666631062827" style="visibility: inherit;" fill="rgb(0, 0, 0)" stroke="rgb(204, 204, 204)" stroke-width="1px"></line><line x1="30.766000747680664" y1="153.31333300272624" x2="25.766000747680664" y2="153.31333300272624" style="visibility: inherit;" fill="rgb(0, 0, 0)" stroke="rgb(204, 204, 204)" stroke-width="1px"></line><line x1="30.766000747680664" y1="141.51999969482424" x2="25.766000747680664" y2="141.51999969482424" style="visibility: inherit;" fill="rgb(0, 0, 0)" stroke="rgb(204, 204, 204)" stroke-width="1px"></line><line x1="30.766000747680664" y1="129.7266663869222" x2="25.766000747680664" y2="129.7266663869222" style="visibility: inherit;" fill="rgb(0, 0, 0)" stroke="rgb(204, 204, 204)" stroke-width="1px"></line><line x1="30.766000747680664" y1="117.9333330790202" x2="25.766000747680664" y2="117.9333330790202" style="visibility: inherit;" fill="rgb(0, 0, 0)" stroke="rgb(204, 204, 204)" stroke-width="1px"></line><line x1="30.766000747680664" y1="106.13999977111816" x2="25.766000747680664" y2="106.13999977111816" style="visibility: inherit;" fill="rgb(0, 0, 0)" stroke="rgb(204, 204, 204)" stroke-width="1px"></line><line x1="30.766000747680664" y1="94.34666646321614" x2="25.766000747680664" y2="94.34666646321614" style="visibility: inherit;" fill="rgb(0, 0, 0)" stroke="rgb(204, 204, 204)" stroke-width="1px"></line><line x1="30.766000747680664" y1="82.55333315531414" x2="25.766000747680664" y2="82.55333315531414" style="visibility: inherit;" fill="rgb(0, 0, 0)" stroke="rgb(204, 204, 204)" stroke-width="1px"></line><line x1="30.766000747680664" y1="70.75999984741212" x2="25.766000747680664" y2="70.75999984741212" style="visibility: inherit;" fill="rgb(0, 0, 0)" stroke="rgb(204, 204, 204)" stroke-width="1px"></line><line x1="30.766000747680664" y1="58.9666665395101" x2="25.766000747680664" y2="58.9666665395101" style="visibility: inherit;" fill="rgb(0, 0, 0)" stroke="rgb(204, 204, 204)" stroke-width="1px"></line><line x1="30.766000747680664" y1="47.17333323160808" x2="25.766000747680664" y2="47.17333323160808" style="visibility: inherit;" fill="rgb(0, 0, 0)" stroke="rgb(204, 204, 204)" stroke-width="1px"></line><line x1="30.766000747680664" y1="35.379999923706045" x2="25.766000747680664" y2="35.379999923706045" style="visibility: inherit;" fill="rgb(0, 0, 0)" stroke="rgb(204, 204, 204)" stroke-width="1px"></line><line x1="30.766000747680664" y1="23.58666661580403" x2="25.766000747680664" y2="23.58666661580403" style="visibility: inherit;" fill="rgb(0, 0, 0)" stroke="rgb(204, 204, 204)" stroke-width="1px"></line><line x1="30.766000747680664" y1="11.793333307902016" x2="25.766000747680664" y2="11.793333307902016" style="visibility: inherit;" fill="rgb(0, 0, 0)" stroke="rgb(204, 204, 204)" stroke-width="1px"></line><line x1="30.766000747680664" y1="0" x2="25.766000747680664" y2="0" style="visibility: inherit;" fill="rgb(0, 0, 0)" stroke="rgb(204, 204, 204)" stroke-width="1px"></line></g><g transform="translate(20.766000747680664, 0)"><text style="text-anchor: end; visibility: hidden; font-family: Roboto, sans-serif; font-size: 12px; font-weight: 200;" x="0" y="176.89999961853027" dx="0em" dy="0.3em" fill="rgb(33, 33, 33)" stroke="none" stroke-width="1px">46</text><text style="text-anchor: end; visibility: inherit; font-family: Roboto, sans-serif; font-size: 12px; font-weight: 200;" x="0" y="165.10666631062827" dx="0em" dy="0.3em" fill="rgb(33, 33, 33)" stroke="none" stroke-width="1px">48</text><text style="text-anchor: end; visibility: hidden; font-family: Roboto, sans-serif; font-size: 12px; font-weight: 200;" x="0" y="153.31333300272624" dx="0em" dy="0.3em" fill="rgb(33, 33, 33)" stroke="none" stroke-width="1px">50</text><text style="text-anchor: end; visibility: hidden; font-family: Roboto, sans-serif; font-size: 12px; font-weight: 200;" x="0" y="141.51999969482424" dx="0em" dy="0.3em" fill="rgb(33, 33, 33)" stroke="none" stroke-width="1px">52</text><text style="text-anchor: end; visibility: inherit; font-family: Roboto, sans-serif; font-size: 12px; font-weight: 200;" x="0" y="129.7266663869222" dx="0em" dy="0.3em" fill="rgb(33, 33, 33)" stroke="none" stroke-width="1px">54</text><text style="text-anchor: end; visibility: hidden; font-family: Roboto, sans-serif; font-size: 12px; font-weight: 200;" x="0" y="117.9333330790202" dx="0em" dy="0.3em" fill="rgb(33, 33, 33)" stroke="none" stroke-width="1px">56</text><text style="text-anchor: end; visibility: hidden; font-family: Roboto, sans-serif; font-size: 12px; font-weight: 200;" x="0" y="106.13999977111816" dx="0em" dy="0.3em" fill="rgb(33, 33, 33)" stroke="none" stroke-width="1px">58</text><text style="text-anchor: end; visibility: inherit; font-family: Roboto, sans-serif; font-size: 12px; font-weight: 200;" x="0" y="94.34666646321614" dx="0em" dy="0.3em" fill="rgb(33, 33, 33)" stroke="none" stroke-width="1px">60</text><text style="text-anchor: end; visibility: hidden; font-family: Roboto, sans-serif; font-size: 12px; font-weight: 200;" x="0" y="82.55333315531414" dx="0em" dy="0.3em" fill="rgb(33, 33, 33)" stroke="none" stroke-width="1px">62</text><text style="text-anchor: end; visibility: hidden; font-family: Roboto, sans-serif; font-size: 12px; font-weight: 200;" x="0" y="70.75999984741212" dx="0em" dy="0.3em" fill="rgb(33, 33, 33)" stroke="none" stroke-width="1px">64</text><text style="text-anchor: end; visibility: inherit; font-family: Roboto, sans-serif; font-size: 12px; font-weight: 200;" x="0" y="58.9666665395101" dx="0em" dy="0.3em" fill="rgb(33, 33, 33)" stroke="none" stroke-width="1px">66</text><text style="text-anchor: end; visibility: hidden; font-family: Roboto, sans-serif; font-size: 12px; font-weight: 200;" x="0" y="47.17333323160808" dx="0em" dy="0.3em" fill="rgb(33, 33, 33)" stroke="none" stroke-width="1px">68</text><text style="text-anchor: end; visibility: hidden; font-family: Roboto, sans-serif; font-size: 12px; font-weight: 200;" x="0" y="35.379999923706045" dx="0em" dy="0.3em" fill="rgb(33, 33, 33)" stroke="none" stroke-width="1px">70</text><text style="text-anchor: end; visibility: inherit; font-family: Roboto, sans-serif; font-size: 12px; font-weight: 200;" x="0" y="23.58666661580403" dx="0em" dy="0.3em" fill="rgb(33, 33, 33)" stroke="none" stroke-width="1px">72</text><text style="text-anchor: end; visibility: hidden; font-family: Roboto, sans-serif; font-size: 12px; font-weight: 200;" x="0" y="11.793333307902016" dx="0em" dy="0.3em" fill="rgb(33, 33, 33)" stroke="none" stroke-width="1px">74</text><text style="text-anchor: end; visibility: hidden; font-family: Roboto, sans-serif; font-size: 12px; font-weight: 200;" x="0" y="0" dx="0em" dy="0.3em" fill="rgb(33, 33, 33)" stroke="none" stroke-width="1px">76</text></g><line x1="30.766000747680664" y1="0" x2="30.766000747680664" y2="176.89999961853027" fill="rgb(0, 0, 0)" stroke="rgb(204, 204, 204)" stroke-width="1px"></line></g></g><g transform="translate(30, 0)" clip-path="url(#clip_0)"><clipPath id="clip_0"><rect width="299" height="176"></rect></clipPath><g><g><g><line x1="0" y1="0" x2="0" y2="176.89999961853027" fill="rgb(0, 0, 0)" stroke="rgb(66, 66, 66)" stroke-width="1px" opacity="0.25"></line><line x1="27.20309084111994" y1="0" x2="27.20309084111994" y2="176.89999961853027" fill="rgb(0, 0, 0)" stroke="rgb(66, 66, 66)" stroke-width="1px" opacity="0.25"></line><line x1="54.40618168223988" y1="0" x2="54.40618168223988" y2="176.89999961853027" fill="rgb(0, 0, 0)" stroke="rgb(66, 66, 66)" stroke-width="1px" opacity="0.25"></line><line x1="81.6092725233598" y1="0" x2="81.6092725233598" y2="176.89999961853027" fill="rgb(0, 0, 0)" stroke="rgb(66, 66, 66)" stroke-width="1px" opacity="0.25"></line><line x1="108.81236336447976" y1="0" x2="108.81236336447976" y2="176.89999961853027" fill="rgb(0, 0, 0)" stroke="rgb(66, 66, 66)" stroke-width="1px" opacity="0.25"></line><line x1="136.0154542055997" y1="0" x2="136.0154542055997" y2="176.89999961853027" fill="rgb(0, 0, 0)" stroke="rgb(66, 66, 66)" stroke-width="1px" opacity="0.25"></line><line x1="163.2185450467196" y1="0" x2="163.2185450467196" y2="176.89999961853027" fill="rgb(0, 0, 0)" stroke="rgb(66, 66, 66)" stroke-width="1px" opacity="0.25"></line><line x1="190.42163588783959" y1="0" x2="190.42163588783959" y2="176.89999961853027" fill="rgb(0, 0, 0)" stroke="rgb(66, 66, 66)" stroke-width="1px" opacity="0.25"></line><line x1="217.62472672895953" y1="0" x2="217.62472672895953" y2="176.89999961853027" fill="rgb(0, 0, 0)" stroke="rgb(66, 66, 66)" stroke-width="1px" opacity="0.25"></line><line x1="244.82781757007947" y1="0" x2="244.82781757007947" y2="176.89999961853027" fill="rgb(0, 0, 0)" stroke="rgb(66, 66, 66)" stroke-width="1px" opacity="0.25"></line><line x1="272.0309084111994" y1="0" x2="272.0309084111994" y2="176.89999961853027" fill="rgb(0, 0, 0)" stroke="rgb(66, 66, 66)" stroke-width="1px" opacity="0.25"></line><line x1="299.23399925231934" y1="0" x2="299.23399925231934" y2="176.89999961853027" fill="rgb(0, 0, 0)" stroke="rgb(66, 66, 66)" stroke-width="1px" opacity="0.25"></line></g><g><line x1="0" y1="176.89999961853027" x2="299.23399925231934" y2="176.89999961853027" fill="rgb(0, 0, 0)" stroke="rgb(66, 66, 66)" stroke-width="1px" opacity="0.25"></line><line x1="0" y1="165.10666631062827" x2="299.23399925231934" y2="165.10666631062827" fill="rgb(0, 0, 0)" stroke="rgb(66, 66, 66)" stroke-width="1px" opacity="0.25"></line><line x1="0" y1="153.31333300272624" x2="299.23399925231934" y2="153.31333300272624" fill="rgb(0, 0, 0)" stroke="rgb(66, 66, 66)" stroke-width="1px" opacity="0.25"></line><line x1="0" y1="141.51999969482424" x2="299.23399925231934" y2="141.51999969482424" fill="rgb(0, 0, 0)" stroke="rgb(66, 66, 66)" stroke-width="1px" opacity="0.25"></line><line x1="0" y1="129.7266663869222" x2="299.23399925231934" y2="129.7266663869222" fill="rgb(0, 0, 0)" stroke="rgb(66, 66, 66)" stroke-width="1px" opacity="0.25"></line><line x1="0" y1="117.9333330790202" x2="299.23399925231934" y2="117.9333330790202" fill="rgb(0, 0, 0)" stroke="rgb(66, 66, 66)" stroke-width="1px" opacity="0.25"></line><line x1="0" y1="106.13999977111816" x2="299.23399925231934" y2="106.13999977111816" fill="rgb(0, 0, 0)" stroke="rgb(66, 66, 66)" stroke-width="1px" opacity="0.25"></line><line x1="0" y1="94.34666646321614" x2="299.23399925231934" y2="94.34666646321614" fill="rgb(0, 0, 0)" stroke="rgb(66, 66, 66)" stroke-width="1px" opacity="0.25"></line><line x1="0" y1="82.55333315531414" x2="299.23399925231934" y2="82.55333315531414" fill="rgb(0, 0, 0)" stroke="rgb(66, 66, 66)" stroke-width="1px" opacity="0.25"></line><line x1="0" y1="70.75999984741212" x2="299.23399925231934" y2="70.75999984741212" fill="rgb(0, 0, 0)" stroke="rgb(66, 66, 66)" stroke-width="1px" opacity="0.25"></line><line x1="0" y1="58.9666665395101" x2="299.23399925231934" y2="58.9666665395101" fill="rgb(0, 0, 0)" stroke="rgb(66, 66, 66)" stroke-width="1px" opacity="0.25"></line><line x1="0" y1="47.17333323160808" x2="299.23399925231934" y2="47.17333323160808" fill="rgb(0, 0, 0)" stroke="rgb(66, 66, 66)" stroke-width="1px" opacity="0.25"></line><line x1="0" y1="35.379999923706045" x2="299.23399925231934" y2="35.379999923706045" fill="rgb(0, 0, 0)" stroke="rgb(66, 66, 66)" stroke-width="1px" opacity="0.25"></line><line x1="0" y1="23.58666661580403" x2="299.23399925231934" y2="23.58666661580403" fill="rgb(0, 0, 0)" stroke="rgb(66, 66, 66)" stroke-width="1px" opacity="0.25"></line><line x1="0" y1="11.793333307902016" x2="299.23399925231934" y2="11.793333307902016" fill="rgb(0, 0, 0)" stroke="rgb(66, 66, 66)" stroke-width="1px" opacity="0.25"></line><line x1="0" y1="0" x2="299.23399925231934" y2="0" fill="rgb(0, 0, 0)" stroke="rgb(66, 66, 66)" stroke-width="1px" opacity="0.25"></line></g></g></g><g><g><line x1="0" y1="448.1466657002767" x2="299.23399925231934" y2="448.1466657002767" fill="rgb(0, 0, 0)" stroke="rgb(153, 153, 153)" stroke-width="1.5px"></line></g></g><g><g><line x1="27.20309084111994" y1="0" x2="27.20309084111994" y2="176.89999961853027" fill="rgb(0, 0, 0)" stroke="rgb(153, 153, 153)" stroke-width="1.5px"></line></g></g><g><g><g><g><g><path style="fill: none;" stroke="rgb(255, 112, 67)" stroke-width="2px" d="M27.20309084111994,13.717559886597643L27.747152657942337,13.877807129497532L28.291214474764736,13.465222215226087L28.835276291587135,12.331029839945655L29.379338108409534,13.68381888935595L29.923399925231934,13.797638520051256L30.467461742054333,14.001794047361658L31.011523558876732,12.176541060575012L31.55558537569913,13.91847627817285L32.09964719252153,14.166765029875384L32.64370900934393,14.069366017837707L33.18777082616633,12.852575681309576L33.73183264298873,14.150164459232466L34.27589445981113,14.209188710407274L34.819956276633526,15.10633933306575L35.36401809345592,13.232769238228993L35.90807991027832,14.658168913703415L36.45214172710072,14.247338531288543L36.99620354392312,16.190370092446877L37.540265360745515,16.052751811697096L38.084327177567914,16.180472733255986L38.62838899439031,16.370951909684422L39.17245081121272,22.831813025512858L39.71651262803511,21.974026899636367L40.26057444485751,14.494502583083046L40.8046362616799,18.40998785499445L41.34869807850231,30.04482845185315L41.89275989532471,30.653291102111684L42.43682171214711,23.490392303674405L42.98088352896951,26.662225996378886L43.5249453457919,57.09129692482044L44.069007162614305,44.7220722759972L44.6130689794367,44.43064003582161L45.157130796259096,31.978862413747024L45.7011926130815,75.01579681750323L46.245254429903895,50.98165709627986L46.7893162467263,47.89269129280099L47.33337806354869,43.945399507489725L47.87743988037109,78.57567447248536L48.42150169719349,58.55547625312465L48.96556351401589,39.83516119949926L49.50962533083829,46.802587153916335L50.05368714766069,83.3655914289125L50.59774896448309,56.6532038166343L51.14181078130548,37.492276327028705L51.68587259812789,44.16588567746512L52.229934414950286,52.03316153432L52.773996231772685,47.5412450655315L53.318058048595084,96.10974603908544L53.862119865417476,46.8483849341724L54.40618168223988,61.91248053869154L54.950243499062275,54.97641121771109L55.494305315884674,83.92935850482488L56.03836713270708,46.33646652402142L56.58242894952947,72.23360416094583L57.12649076635188,62.17125149353718L57.67055258317427,108.49359178671341L58.21461439999667,58.83152259855804L58.75867621681907,61.09432883757496L59.30273803364147,55.703732154253046L59.84679985046387,84.76181638877195L60.390861667286266,55.53003350045279L60.934923484108666,40.69051797357437L61.47898530093106,37.740700042720235L62.023047117753464,79.80220471021724L62.567108934575856,76.06961813735397L63.11117075139826,67.9682697356344L63.65523256822066,57.04324974474828L64.19929438504306,105.21421428880058L64.74335620186545,82.32866310168076L65.28741801868786,31.70196129638352L65.83147983551025,65.95541680418391L66.37554165233266,97.10668003758667L66.91960346915505,81.1289232157588L67.46366528597746,70.12679379917633L68.00772710279985,84.15121680868809L68.55178891962225,113.16406561290496L69.09585073644465,94.20985796640015L69.63991255326705,82.24075655686707L70.18397437008944,74.08839176731806L70.72803618691184,115.58156307727597L71.27209800373424,93.21670295959001L71.81615982055663,75.04800822286997L72.36022163737904,87.60042399271745L72.90428345420143,111.23403558268376L73.44834527102384,95.38917330199183L73.99240708784625,62.057656802823466L74.53646890466864,68.13243093421431L75.08053072149103,99.57571125174485L75.62459253831344,88.657709388285L76.16865435513583,56.25654465306094L76.71271617195822,68.305634720055L77.80083980560303,85.03111453475697L78.34490162242544,79.1604734366784L78.88896343924782,113.64361515970205L79.43302525607022,66.13127488180761L79.97708707289262,83.77192301169512L80.52114888971502,79.2679272658941L81.06521070653743,93.65418872982579L81.6092725233598,74.08571498153687L82.15333434018221,100.66248627890162L82.69739615700462,90.84214653770857L83.24145797382702,131.52985276151279L83.78551979064942,87.90119124212991L84.32958160747181,77.2344923261262L84.87364342429422,77.72031769841026L85.41770524111661,92.09094583361997L85.96176705793901,72.1836899790263L86.5058288747614,61.219665395328775L87.0498906915838,73.16528307078163L87.5939525084062,91.0892206135104L88.13801432522861,104.95589321391817L88.682076142051,99.47617530988185L89.2261379588734,99.16067449167384L89.7701997756958,117.3533028424373L90.31426159251819,112.0078291194266L90.8583234093406,54.44969175677009L91.402385226163,89.67637258900987L91.94644704298538,110.73156465176046L92.49050885980779,102.40217209668334L93.0345706766302,96.55935607433008L93.5786324934526,109.65212266800421L94.122694310275,126.26421023797593L94.66675612709739,112.8378351575741L95.21081794391979,103.8831094536176L95.75487976074218,97.18297967934923L96.29894157756459,125.90561091929122L96.84300339438698,105.66033775433026L97.38706521120938,83.78508200061938L97.93112702803178,99.18973673729803L98.47518884485419,122.0533787702089L99.01925066167658,104.89360733301L99.56331247849897,66.66784671394319L100.10737429532138,79.05214234153439L100.65143611214377,105.24062224264173L101.19549792896618,96.41998326172373L101.73955974578858,69.18694956800803L102.28362156261096,80.98421932558824L103.37174519625577,101.31193299380975L103.91580701307818,93.34860776480684L104.45986882990057,120.91408025734587L105.00393064672296,75.68267638098622L105.54799246354537,94.23775052411996L106.09205428036776,92.01894254550619L106.63611609719017,104.82378596271786L107.18017791401256,85.51426312125987L107.72423973083495,112.41467806416695L108.26830154765736,104.83685497564947L108.81236336447976,139.32872436995967L109.35642518130216,103.06048144686696L109.90048699812455,83.3256645821765L110.44454881494696,91.1983614925882L110.98861063176935,96.55708418051582L111.53267244859175,71.35006240717485L112.07673426541416,65.76232832396877L112.62079608223654,81.46678306813895L113.16485789905894,92.01444374587396L113.70891971588135,115.16303974749002L114.25298153270376,114.86656885172634L114.79704334952613,117.18525018217552L115.34110516634854,123.36930015663312L115.88516698317095,124.63483498717639L116.42922879999334,67.17517634846931L116.97329061681575,102.70692078377033L117.51735243363814,119.65146964656354L118.06141425046053,118.90178967584943L118.60547606728294,107.45344681774465L119.14953788410534,121.13355419740401L119.69359970092773,133.76168476506186L120.23766151775013,122.6138392283916L120.78172333457253,113.58825743022753L121.32578515139492,107.27819607807129L121.86984696821733,132.00650058254712L122.41390878503974,115.74592672183935L122.95797060186212,84.54938307013823L123.50203241868452,102.00762736893715L124.04609423550693,127.89592486458423L124.59015605232933,118.01084739668343L125.13421786915171,73.90407594638576L125.67827968597412,88.44136211397127L126.22234150279652,108.4779134699951L126.76640331961892,101.64448426262389L127.31046513644132,72.41542314808224L127.85452695326371,87.5651534036008L128.9426505869085,108.23936461949633L129.4867124037309,98.57256890975113L130.03077422055333,125.33703012777235L130.57483603737572,84.36484230922433L131.1188978541981,99.61633541242384L131.6629596710205,97.02217008649531L132.20702148784292,109.34321259125744L132.75108330466531,86.596899252755L133.2951451214877,115.01239744180494L133.8392069383101,114.01334900747655L134.3832687551325,147.22875148813716L134.9273305719549,108.24568543297961L135.4713923887773,86.96843262038237L136.0154542055997,96.85593944008457L136.5595160224221,107.22765206420326L137.1035778392445,87.7835026437509L137.6476396560669,77.44454128095482L138.1917014728893,95.7389999613937L138.73576328971168,95.9654470408818L139.2798251065341,117.00981949051686L139.8238869233565,122.5114015607658L140.3679487401789,126.82678513198579L140.91201055700128,124.08454181616253L141.45607237382367,132.7479702439324L142.0001341906461,75.22823013613694L142.54419600746849,112.46283771422992L143.08825782429088,124.07941318458178L143.63231964111327,128.59224907166015L144.1763814579357,113.44537555390804L144.72044327475808,127.31755918386528L145.26450509158047,137.95200170650594L145.80856690840287,128.8777428963212L146.35262872522526,119.85935917756869L146.89669054204768,111.70290048035434L147.44075235887007,136.15639580929565L147.9848141756925,123.16181551759485L148.52887599251486,89.35072697763123L149.07293780933728,102.977703533634L149.61699962615967,130.7726373014147L150.16106144298206,114.44201713043319L150.70512325980448,73.73771033598605L151.24918507662687,93.95045717960602L151.79324689344926,109.71353128298409L152.33730871027166,105.7594912982245L152.88137052709405,75.96180440416768L153.42543234391644,89.55150840521746L154.51355597756125,118.02362398763896L155.05761779438365,100.07550539688697L155.60167961120607,140.06749475156562L156.14574142802846,88.82166814088147L156.68980324485088,99.62162150199171L157.23386506167327,95.750629358443L157.77792687849563,115.50413873560537L158.32198869531803,94.28815957399905L158.86605051214045,118.85920853733042L159.41011232896284,119.55078651079432L159.95417414578523,156.01645925574726L160.49823596260765,110.68273018175267L161.04229777943004,89.16708597664376L161.58635959625246,112.7351725499667L162.13042141307486,135.9666814288047L162.67448322989722,94.55927973383514L163.2185450467196,88.64203107156669L163.76260686354203,88.7937530891635L164.30666868036442,101.2523014046846L164.85073049718685,121.31008709497256L165.39479231400924,128.99466669876276L165.93885413083163,132.93700980447852L166.48291594765405,130.60487706312898L167.02697776447644,137.85901151810782L167.57103958129883,79.93084788570073L168.11510139812123,119.30483713490054L168.65916321494362,129.30935773303693L169.203225031766,135.3815225606411L169.74728684858843,119.43312040641348L170.29134866541082,132.57906281174047L170.83541048223321,143.35537498078338L171.37947229905564,133.7773855757783L171.92353411587803,125.29858788491498L172.46759593270042,114.87646621091723L173.0116577495228,143.67663426252062L173.5557195663452,129.67380549124354L174.0997813831676,87.92233560040138L174.64384319999002,105.07697840601952L175.1879050168124,129.7402077738152L175.7319668336348,121.27022773023103L176.27602865045722,87.58033685235957L176.8200904672796,95.24246744598496L177.364152284102,110.21766676977131L177.90821410092443,109.5144593992581L178.4522759177468,75.54112165055824L178.99633773456918,92.34578033878739L180.084461368214,126.9664728605664L180.62852318503639,99.18705995151686L181.1725850018588,147.39905354821508L181.7166468186812,102.63496248365288L182.26070863550362,113.31567516051098L182.804770452326,102.23522164233145L183.34883226914837,115.67803983538907L183.89289408597077,103.94242612676851L184.4369559027932,126.54709475885029L184.98101771961558,124.31721973314124L185.525079536438,159.28659172041588L186.0691413532604,110.89437621045072L186.61320317008278,96.43977798010553L187.1572649869052,122.78270167258717L187.7013268037276,137.00453200996103L188.24538862055,94.77621185210108L188.78945043737238,104.33022265506636L189.33351225419477,93.52990938998555L189.87757407101716,106.74297388582539L190.42163588783959,124.35431233610895L190.96569770466198,132.73919758464956L191.50975952148437,136.30206694138712L192.0538213383068,133.64674043445848L192.59788315512918,141.57178087859114L193.14194497195157,88.01289643699808L193.68600678877397,123.8421464919782L194.23006860559636,131.6950711780063L194.77413042241875,141.74804384818174L195.31819223924117,120.58964932186791L195.86225405606356,136.85433958423914L196.40631587288595,148.77406666780857L196.95037768970838,136.95722713182818L197.49443950653077,134.09227905603598L198.03850132335316,122.38521023108187L198.58256314017558,145.93545906386305L199.12662495699794,133.2243481369888L199.67068677382034,108.32790099625855L200.21474859064276,111.31973771567766L200.75881040746515,131.37050527853935L201.30287222428754,117.67935334578287L201.84693404110996,100.90287963724961L202.39099585793235,100.19092210145173L202.93505767475477,114.41686884048904L203.47911949157717,113.79477482734484L204.02318130839953,105.36971529808847L204.56724312522192,101.31886114524337L205.65536675886673,99.72043763591354L206.19942857568915,123.88920393613128L206.74349039251155,151.042248972386L207.28755220933394,105.62232289743794L207.83161402615636,119.07490348569746L208.37567584297875,104.5834375923662L208.91973765980114,129.023459016409L209.46379947662354,108.30718402395213L210.00786129344593,131.06193261176497L210.55192311026832,127.67253696884606L211.09598492709074,161.60068427524018L211.64004674391313,116.978147941106L212.18410856073552,101.68722285913003L212.72817037755794,129.3614088447818L213.27223219438034,137.09385567665888L213.81629401120273,115.44592426836437L214.36035582802512,102.98913048469986L214.9044176448475,96.68158846033766L215.4484794616699,113.48240067488126L215.99254127849233,128.8957380948501L216.53660309531472,135.58385607410042L217.0806649121371,139.4981491641093L217.62472672895953,139.19308556104806L218.16878854578192,144.53064139670605L218.7128503626043,88.76505074750992L219.25691217942673,125.08300540653873L219.8009739962491,134.75661679772676L220.3450358130715,145.98121185612277L220.8890976298939,121.77600527888401L221.4331594467163,141.8132989368472L221.9772212635387,149.84903234593074L222.52128308036112,140.82722953945776L223.0653448971835,138.08318670378162L223.60940671400593,125.69857616021618L224.15346853082832,149.62994080384135L224.69753034765068,133.87019581219113L225.24159216447308,128.75519559433934L225.7856539812955,114.23603958927173L226.3297157981179,140.12318989101257L226.8737776149403,118.62871253817332L227.4178394317627,106.78272078057608L227.9619012485851,113.08875570706151L228.5059630654075,113.98460167782662L229.0500248822299,118.62691301832044L229.59408669905227,118.24923878919508L230.1381485158747,111.01647363246933L231.22627214951947,94.23437642439579L231.7703339663419,122.00861571386825L232.3143957831643,153.42240639980955L232.85845759998668,108.03896558987884L233.4025194168091,121.4597621587367L233.9465812336315,115.30369471799156L234.49064305045388,125.88851548068875L235.03470486727628,107.80970676062061L235.57876668409867,134.7441551227455L236.12282850092106,129.57519180330516L236.66689031774348,163.0589251880299L237.21095213456587,117.12294180726919L237.75501395138826,103.69850121070921L238.29907576821068,131.47640702188193L238.84313758503308,136.10596426541838L239.38719940185547,109.94400478814302L239.93126121867786,119.85076647027114L240.47532303550025,101.47152791076296L241.01938485232264,117.17020169740572L241.56344666914507,128.28831016850697L242.10750848596746,138.3362216890962L242.65157030278985,140.51649744885992L243.19563211961227,141.4541597622066L243.73969393643466,146.5013855635989L244.28375575325708,90.56697745820348L244.82781757007947,128.30155913342386L245.37187938690184,136.01999220444657L245.91594120372423,150.05053358145815L246.46000302054665,120.20738631711768L247.00406483736904,145.54260138597894L247.54812665419146,149.75824656935242L248.09218847101386,142.77628949212328L248.63625028783625,141.92228235793786L249.18031210465867,130.9567281823654L249.72437392148106,151.51894178141666L250.26843573830342,135.36872347568737L250.81249755512584,138.18996571305252L251.35655937194824,117.10413682480647L251.90062118877063,141.84508295624886L252.44468300559305,118.47766534052134L252.98874482241544,107.53426775313758L253.53280663923783,117.9707630919603L254.07686845606025,112.52397640123189L254.62093027288265,122.04878999458403L255.16499208970504,119.77091277679914L255.70905390652743,117.46464813333489L256.2531157233498,100.41221805536091L256.79717754017224,123.17425469857795L257.3412393569946,153.86978952923624L257.885301173817,109.15770458842259L258.42936299063945,124.60563777756325L258.9734248074618,116.66435666675825L259.51748662428423,126.40430285852345L260.06154844110665,110.2723046913047L260.605610257929,135.56300413780505L261.14967207475144,132.06813413750862L261.6937338915738,167.00574459937974L262.2377957083962,120.47650451111741L262.78185752521864,104.2094298849411L263.325919342041,134.07741052325147L263.8699811588634,139.12103728493798L264.41404297568585,113.69766823728327L264.9581047925082,115.51972707633104L265.50216660933063,105.43719729257185L266.046228426153,118.41436722969593L266.5902902429754,127.67433648869894L267.1343520597978,140.53521245533L267.6784138766202,144.78203432015482L268.2224756934426,146.47299813791955L268.766537510265,148.4633570712089L269.3105993270874,85.75013518597746L269.8546611439098,128.8036026783821L270.3987229607322,135.88381353957908L270.9427847775546,152.89933096657066L271.48684659437697,120.8766727384039L272.0309084111994,148.59656652831907L272.5749702280218,150.74571059462784L273.1190320448442,144.15067277976826L273.6630938616666,142.5687598650887L274.207155678489,130.91896075945283L274.7512174953114,152.23461082691114L275.2952793121338,135.48571476012341L275.8393411289562,145.7655169077557L276.3834029457786,116.6653688966755L276.92746476260095,143.1447861699989L277.47152657942337,118.97878663155497L278.0155883962458,113.9750642226063L278.5596502130682,122.59314475008335L279.1037120298906,113.75484798060887L279.647773846713,123.80006022141873L280.1918356635354,121.58095982082887L280.7358974803578,118.22049145954516" fill="none"></path></g></g></g></g></g></g><g transform="translate(30, 176)" clip-path="url(#clip_1)"><clipPath id="clip_1"><rect width="299" height="23"></rect></clipPath><g><g><line x1="0" y1="0" x2="0" y2="5" style="visibility: inherit;" fill="rgb(0, 0, 0)" stroke="rgb(204, 204, 204)" stroke-width="1px"></line><line x1="27.20309084111994" y1="0" x2="27.20309084111994" y2="5" style="visibility: inherit;" fill="rgb(0, 0, 0)" stroke="rgb(204, 204, 204)" stroke-width="1px"></line><line x1="54.40618168223988" y1="0" x2="54.40618168223988" y2="5" style="visibility: inherit;" fill="rgb(0, 0, 0)" stroke="rgb(204, 204, 204)" stroke-width="1px"></line><line x1="81.6092725233598" y1="0" x2="81.6092725233598" y2="5" style="visibility: inherit;" fill="rgb(0, 0, 0)" stroke="rgb(204, 204, 204)" stroke-width="1px"></line><line x1="108.81236336447976" y1="0" x2="108.81236336447976" y2="5" style="visibility: inherit;" fill="rgb(0, 0, 0)" stroke="rgb(204, 204, 204)" stroke-width="1px"></line><line x1="136.0154542055997" y1="0" x2="136.0154542055997" y2="5" style="visibility: inherit;" fill="rgb(0, 0, 0)" stroke="rgb(204, 204, 204)" stroke-width="1px"></line><line x1="163.2185450467196" y1="0" x2="163.2185450467196" y2="5" style="visibility: inherit;" fill="rgb(0, 0, 0)" stroke="rgb(204, 204, 204)" stroke-width="1px"></line><line x1="190.42163588783959" y1="0" x2="190.42163588783959" y2="5" style="visibility: inherit;" fill="rgb(0, 0, 0)" stroke="rgb(204, 204, 204)" stroke-width="1px"></line><line x1="217.62472672895953" y1="0" x2="217.62472672895953" y2="5" style="visibility: inherit;" fill="rgb(0, 0, 0)" stroke="rgb(204, 204, 204)" stroke-width="1px"></line><line x1="244.82781757007947" y1="0" x2="244.82781757007947" y2="5" style="visibility: inherit;" fill="rgb(0, 0, 0)" stroke="rgb(204, 204, 204)" stroke-width="1px"></line><line x1="272.0309084111994" y1="0" x2="272.0309084111994" y2="5" style="visibility: inherit;" fill="rgb(0, 0, 0)" stroke="rgb(204, 204, 204)" stroke-width="1px"></line><line x1="299.23399925231934" y1="0" x2="299.23399925231934" y2="5" style="visibility: inherit;" fill="rgb(0, 0, 0)" stroke="rgb(204, 204, 204)" stroke-width="1px"></line></g><g transform="translate(0, 8)"><text style="text-anchor: middle; visibility: hidden; font-family: Roboto, sans-serif; font-size: 12px; font-weight: 200;" x="0" y="0" dx="0em" dy="0.95em" fill="rgb(33, 33, 33)" stroke="none" stroke-width="1px">-50</text><text style="text-anchor: middle; visibility: inherit; font-family: Roboto, sans-serif; font-size: 12px; font-weight: 200;" x="27.20309084111994" y="0" dx="0em" dy="0.95em" fill="rgb(33, 33, 33)" stroke="none" stroke-width="1px">0</text><text style="text-anchor: middle; visibility: inherit; font-family: Roboto, sans-serif; font-size: 12px; font-weight: 200;" x="54.40618168223988" y="0" dx="0em" dy="0.95em" fill="rgb(33, 33, 33)" stroke="none" stroke-width="1px">50</text><text style="text-anchor: middle; visibility: inherit; font-family: Roboto, sans-serif; font-size: 12px; font-weight: 200;" x="81.6092725233598" y="0" dx="0em" dy="0.95em" fill="rgb(33, 33, 33)" stroke="none" stroke-width="1px">100</text><text style="text-anchor: middle; visibility: inherit; font-family: Roboto, sans-serif; font-size: 12px; font-weight: 200;" x="108.81236336447976" y="0" dx="0em" dy="0.95em" fill="rgb(33, 33, 33)" stroke="none" stroke-width="1px">150</text><text style="text-anchor: middle; visibility: inherit; font-family: Roboto, sans-serif; font-size: 12px; font-weight: 200;" x="136.0154542055997" y="0" dx="0em" dy="0.95em" fill="rgb(33, 33, 33)" stroke="none" stroke-width="1px">200</text><text style="text-anchor: middle; visibility: inherit; font-family: Roboto, sans-serif; font-size: 12px; font-weight: 200;" x="163.2185450467196" y="0" dx="0em" dy="0.95em" fill="rgb(33, 33, 33)" stroke="none" stroke-width="1px">250</text><text style="text-anchor: middle; visibility: inherit; font-family: Roboto, sans-serif; font-size: 12px; font-weight: 200;" x="190.42163588783959" y="0" dx="0em" dy="0.95em" fill="rgb(33, 33, 33)" stroke="none" stroke-width="1px">300</text><text style="text-anchor: middle; visibility: inherit; font-family: Roboto, sans-serif; font-size: 12px; font-weight: 200;" x="217.62472672895953" y="0" dx="0em" dy="0.95em" fill="rgb(33, 33, 33)" stroke="none" stroke-width="1px">350</text><text style="text-anchor: middle; visibility: inherit; font-family: Roboto, sans-serif; font-size: 12px; font-weight: 200;" x="244.82781757007947" y="0" dx="0em" dy="0.95em" fill="rgb(33, 33, 33)" stroke="none" stroke-width="1px">400</text><text style="text-anchor: middle; visibility: inherit; font-family: Roboto, sans-serif; font-size: 12px; font-weight: 200;" x="272.0309084111994" y="0" dx="0em" dy="0.95em" fill="rgb(33, 33, 33)" stroke="none" stroke-width="1px">450</text><text style="text-anchor: middle; visibility: hidden; font-family: Roboto, sans-serif; font-size: 12px; font-weight: 200;" x="299.23399925231934" y="0" dx="0em" dy="0.95em" fill="rgb(33, 33, 33)" stroke="none" stroke-width="1px">500</text></g><line x1="0" y1="0" x2="299.23399925231934" y2="0" fill="rgb(0, 0, 0)" stroke="rgb(204, 204, 204)" stroke-width="1px"></line></g></g></g></g></svg>