<svg viewBox="0 0 330 200" xmlns="http://www.w3.org/2000/svg"><g><g><g><g><g><line x1="30.766000747680664" y1="176.89999961853027" x2="25.766000747680664" y2="176.89999961853027" style="visibility: inherit;" fill="rgb(0, 0, 0)" stroke="rgb(204, 204, 204)" stroke-width="1px"></line><line x1="30.766000747680664" y1="163.2923073401818" x2="25.766000747680664" y2="163.2923073401818" style="visibility: inherit;" fill="rgb(0, 0, 0)" stroke="rgb(204, 204, 204)" stroke-width="1px"></line><line x1="30.766000747680664" y1="149.6846150618333" x2="25.766000747680664" y2="149.6846150618333" style="visibility: inherit;" fill="rgb(0, 0, 0)" stroke="rgb(204, 204, 204)" stroke-width="1px"></line><line x1="30.766000747680664" y1="136.0769227834848" x2="25.766000747680664" y2="136.0769227834848" style="visibility: inherit;" fill="rgb(0, 0, 0)" stroke="rgb(204, 204, 204)" stroke-width="1px"></line><line x1="30.766000747680664" y1="122.46923050513634" x2="25.766000747680664" y2="122.46923050513634" style="visibility: inherit;" fill="rgb(0, 0, 0)" stroke="rgb(204, 204, 204)" stroke-width="1px"></line><line x1="30.766000747680664" y1="108.86153822678787" x2="25.766000747680664" y2="108.86153822678787" style="visibility: inherit;" fill="rgb(0, 0, 0)" stroke="rgb(204, 204, 204)" stroke-width="1px"></line><line x1="30.766000747680664" y1="95.25384594843938" x2="25.766000747680664" y2="95.25384594843938" style="visibility: inherit;" fill="rgb(0, 0, 0)" stroke="rgb(204, 204, 204)" stroke-width="1px"></line><line x1="30.766000747680664" y1="81.6461536700909" x2="25.766000747680664" y2="81.6461536700909" style="visibility: inherit;" fill="rgb(0, 0, 0)" stroke="rgb(204, 204, 204)" stroke-width="1px"></line><line x1="30.766000747680664" y1="68.0384613917424" x2="25.766000747680664" y2="68.0384613917424" style="visibility: inherit;" fill="rgb(0, 0, 0)" stroke="rgb(204, 204, 204)" stroke-width="1px"></line><line x1="30.766000747680664" y1="54.430769113393936" x2="25.766000747680664" y2="54.430769113393936" style="visibility: inherit;" fill="rgb(0, 0, 0)" stroke="rgb(204, 204, 204)" stroke-width="1px"></line><line x1="30.766000747680664" y1="40.82307683504544" x2="25.766000747680664" y2="40.82307683504544" style="visibility: inherit;" fill="rgb(0, 0, 0)" stroke="rgb(204, 204, 204)" stroke-width="1px"></line><line x1="30.766000747680664" y1="27.215384556696968" x2="25.766000747680664" y2="27.215384556696968" style="visibility: inherit;" fill="rgb(0, 0, 0)" stroke="rgb(204, 204, 204)" stroke-width="1px"></line><line x1="30.766000747680664" y1="13.607692278348473" x2="25.766000747680664" y2="13.607692278348473" style="visibility: inherit;" fill="rgb(0, 0, 0)" stroke="rgb(204, 204, 204)" stroke-width="1px"></line><line x1="30.766000747680664" y1="0" x2="25.766000747680664" y2="0" style="visibility: inherit;" fill="rgb(0, 0, 0)" stroke="rgb(204, 204, 204)" stroke-width="1px"></line></g><g transform="translate(20.766000747680664, 0)"><text style="text-anchor: end; visibility: hidden; font-family: Roboto, sans-serif; font-size: 12px; font-weight: 200;" x="0" y="176.89999961853027" dx="0em" dy="0.3em" fill="rgb(33, 33, 33)" stroke="none" stroke-width="1px">50</text><text style="text-anchor: end; visibility: inherit; font-family: Roboto, sans-serif; font-size: 12px; font-weight: 200;" x="0" y="163.2923073401818" dx="0em" dy="0.3em" fill="rgb(33, 33, 33)" stroke="none" stroke-width="1px">52</text><text style="text-anchor: end; visibility: hidden; font-family: Roboto, sans-serif; font-size: 12px; font-weight: 200;" x="0" y="149.6846150618333" dx="0em" dy="0.3em" fill="rgb(33, 33, 33)" stroke="none" stroke-width="1px">54</text><text style="text-anchor: end; visibility: inherit; font-family: Roboto, sans-serif; font-size: 12px; font-weight: 200;" x="0" y="136.0769227834848" dx="0em" dy="0.3em" fill="rgb(33, 33, 33)" stroke="none" stroke-width="1px">56</text><text style="text-anchor: end; visibility: hidden; font-family: Roboto, sans-serif; font-size: 12px; font-weight: 200;" x="0" y="122.46923050513634" dx="0em" dy="0.3em" fill="rgb(33, 33, 33)" stroke="none" stroke-width="1px">58</text><text style="text-anchor: end; visibility: inherit; font-family: Roboto, sans-serif; font-size: 12px; font-weight: 200;" x="0" y="108.86153822678787" dx="0em" dy="0.3em" fill="rgb(33, 33, 33)" stroke="none" stroke-width="1px">60</text><text style="text-anchor: end; visibility: hidden; font-family: Roboto, sans-serif; font-size: 12px; font-weight: 200;" x="0" y="95.25384594843938" dx="0em" dy="0.3em" fill="rgb(33, 33, 33)" stroke="none" stroke-width="1px">62</text><text style="text-anchor: end; visibility: inherit; font-family: Roboto, sans-serif; font-size: 12px; font-weight: 200;" x="0" y="81.6461536700909" dx="0em" dy="0.3em" fill="rgb(33, 33, 33)" stroke="none" stroke-width="1px">64</text><text style="text-anchor: end; visibility: hidden; font-family: Roboto, sans-serif; font-size: 12px; font-weight: 200;" x="0" y="68.0384613917424" dx="0em" dy="0.3em" fill="rgb(33, 33, 33)" stroke="none" stroke-width="1px">66</text><text style="text-anchor: end; visibility: inherit; font-family: Roboto, sans-serif; font-size: 12px; font-weight: 200;" x="0" y="54.430769113393936" dx="0em" dy="0.3em" fill="rgb(33, 33, 33)" stroke="none" stroke-width="1px">68</text><text style="text-anchor: end; visibility: hidden; font-family: Roboto, sans-serif; font-size: 12px; font-weight: 200;" x="0" y="40.82307683504544" dx="0em" dy="0.3em" fill="rgb(33, 33, 33)" stroke="none" stroke-width="1px">70</text><text style="text-anchor: end; visibility: inherit; font-family: Roboto, sans-serif; font-size: 12px; font-weight: 200;" x="0" y="27.215384556696968" dx="0em" dy="0.3em" fill="rgb(33, 33, 33)" stroke="none" stroke-width="1px">72</text><text style="text-anchor: end; visibility: hidden; font-family: Roboto, sans-serif; font-size: 12px; font-weight: 200;" x="0" y="13.607692278348473" dx="0em" dy="0.3em" fill="rgb(33, 33, 33)" stroke="none" stroke-width="1px">74</text><text style="text-anchor: end; visibility: hidden; font-family: Roboto, sans-serif; font-size: 12px; font-weight: 200;" x="0" y="0" dx="0em" dy="0.3em" fill="rgb(33, 33, 33)" stroke="none" stroke-width="1px">76</text></g><line x1="30.766000747680664" y1="0" x2="30.766000747680664" y2="176.89999961853027" fill="rgb(0, 0, 0)" stroke="rgb(204, 204, 204)" stroke-width="1px"></line></g></g><g transform="translate(30, 0)" clip-path="url(#clip_0)"><clipPath id="clip_0"><rect width="299" height="176"></rect></clipPath><g><g><g><line x1="0" y1="0" x2="0" y2="176.89999961853027" fill="rgb(0, 0, 0)" stroke="rgb(66, 66, 66)" stroke-width="1px" opacity="0.25"></line><line x1="27.20309084111994" y1="0" x2="27.20309084111994" y2="176.89999961853027" fill="rgb(0, 0, 0)" stroke="rgb(66, 66, 66)" stroke-width="1px" opacity="0.25"></line><line x1="54.40618168223988" y1="0" x2="54.40618168223988" y2="176.89999961853027" fill="rgb(0, 0, 0)" stroke="rgb(66, 66, 66)" stroke-width="1px" opacity="0.25"></line><line x1="81.6092725233598" y1="0" x2="81.6092725233598" y2="176.89999961853027" fill="rgb(0, 0, 0)" stroke="rgb(66, 66, 66)" stroke-width="1px" opacity="0.25"></line><line x1="108.81236336447976" y1="0" x2="108.81236336447976" y2="176.89999961853027" fill="rgb(0, 0, 0)" stroke="rgb(66, 66, 66)" stroke-width="1px" opacity="0.25"></line><line x1="136.0154542055997" y1="0" x2="136.0154542055997" y2="176.89999961853027" fill="rgb(0, 0, 0)" stroke="rgb(66, 66, 66)" stroke-width="1px" opacity="0.25"></line><line x1="163.2185450467196" y1="0" x2="163.2185450467196" y2="176.89999961853027" fill="rgb(0, 0, 0)" stroke="rgb(66, 66, 66)" stroke-width="1px" opacity="0.25"></line><line x1="190.42163588783959" y1="0" x2="190.42163588783959" y2="176.89999961853027" fill="rgb(0, 0, 0)" stroke="rgb(66, 66, 66)" stroke-width="1px" opacity="0.25"></line><line x1="217.62472672895953" y1="0" x2="217.62472672895953" y2="176.89999961853027" fill="rgb(0, 0, 0)" stroke="rgb(66, 66, 66)" stroke-width="1px" opacity="0.25"></line><line x1="244.82781757007947" y1="0" x2="244.82781757007947" y2="176.89999961853027" fill="rgb(0, 0, 0)" stroke="rgb(66, 66, 66)" stroke-width="1px" opacity="0.25"></line><line x1="272.0309084111994" y1="0" x2="272.0309084111994" y2="176.89999961853027" fill="rgb(0, 0, 0)" stroke="rgb(66, 66, 66)" stroke-width="1px" opacity="0.25"></line><line x1="299.23399925231934" y1="0" x2="299.23399925231934" y2="176.89999961853027" fill="rgb(0, 0, 0)" stroke="rgb(66, 66, 66)" stroke-width="1px" opacity="0.25"></line></g><g><line x1="0" y1="176.89999961853027" x2="299.23399925231934" y2="176.89999961853027" fill="rgb(0, 0, 0)" stroke="rgb(66, 66, 66)" stroke-width="1px" opacity="0.25"></line><line x1="0" y1="163.2923073401818" x2="299.23399925231934" y2="163.2923073401818" fill="rgb(0, 0, 0)" stroke="rgb(66, 66, 66)" stroke-width="1px" opacity="0.25"></line><line x1="0" y1="149.6846150618333" x2="299.23399925231934" y2="149.6846150618333" fill="rgb(0, 0, 0)" stroke="rgb(66, 66, 66)" stroke-width="1px" opacity="0.25"></line><line x1="0" y1="136.0769227834848" x2="299.23399925231934" y2="136.0769227834848" fill="rgb(0, 0, 0)" stroke="rgb(66, 66, 66)" stroke-width="1px" opacity="0.25"></line><line x1="0" y1="122.46923050513634" x2="299.23399925231934" y2="122.46923050513634" fill="rgb(0, 0, 0)" stroke="rgb(66, 66, 66)" stroke-width="1px" opacity="0.25"></line><line x1="0" y1="108.86153822678787" x2="299.23399925231934" y2="108.86153822678787" fill="rgb(0, 0, 0)" stroke="rgb(66, 66, 66)" stroke-width="1px" opacity="0.25"></line><line x1="0" y1="95.25384594843938" x2="299.23399925231934" y2="95.25384594843938" fill="rgb(0, 0, 0)" stroke="rgb(66, 66, 66)" stroke-width="1px" opacity="0.25"></line><line x1="0" y1="81.6461536700909" x2="299.23399925231934" y2="81.6461536700909" fill="rgb(0, 0, 0)" stroke="rgb(66, 66, 66)" stroke-width="1px" opacity="0.25"></line><line x1="0" y1="68.0384613917424" x2="299.23399925231934" y2="68.0384613917424" fill="rgb(0, 0, 0)" stroke="rgb(66, 66, 66)" stroke-width="1px" opacity="0.25"></line><line x1="0" y1="54.430769113393936" x2="299.23399925231934" y2="54.430769113393936" fill="rgb(0, 0, 0)" stroke="rgb(66, 66, 66)" stroke-width="1px" opacity="0.25"></line><line x1="0" y1="40.82307683504544" x2="299.23399925231934" y2="40.82307683504544" fill="rgb(0, 0, 0)" stroke="rgb(66, 66, 66)" stroke-width="1px" opacity="0.25"></line><line x1="0" y1="27.215384556696968" x2="299.23399925231934" y2="27.215384556696968" fill="rgb(0, 0, 0)" stroke="rgb(66, 66, 66)" stroke-width="1px" opacity="0.25"></line><line x1="0" y1="13.607692278348473" x2="299.23399925231934" y2="13.607692278348473" fill="rgb(0, 0, 0)" stroke="rgb(66, 66, 66)" stroke-width="1px" opacity="0.25"></line><line x1="0" y1="0" x2="299.23399925231934" y2="0" fill="rgb(0, 0, 0)" stroke="rgb(66, 66, 66)" stroke-width="1px" opacity="0.25"></line></g></g></g><g><g><line x1="0" y1="517.0923065772424" x2="299.23399925231934" y2="517.0923065772424" fill="rgb(0, 0, 0)" stroke="rgb(153, 153, 153)" stroke-width="1.5px"></line></g></g><g><g><line x1="27.20309084111994" y1="0" x2="27.20309084111994" y2="176.89999961853027" fill="rgb(0, 0, 0)" stroke="rgb(153, 153, 153)" stroke-width="1.5px"></line></g></g><g><g><g><g><g><path style="fill: none;" stroke="rgb(255, 112, 67)" stroke-width="2px" d="M27.20309084111994,15.827953715304979L27.747152657942337,15.94351663085778L28.291214474764736,15.736005525176534L28.835276291587135,15.043039453764209L29.379338108409534,15.366591822625487L29.923399925231934,15.598936208658222L30.467461742054333,15.828144575943044L31.011523558876732,15.10467730142613L31.55558537569913,15.490607799479658L32.09964719252153,15.834953744806935L32.64370900934393,15.995106824235801L33.18777082616633,15.528005323002718L33.73183264298873,15.84806635074696L34.27589445981113,16.0670985503115L34.819956276633526,16.612672266017114L35.36401809345592,16.074883599622446L35.90807991027832,16.410295663232755L36.45214172710072,16.421873280510546L36.99620354392312,17.325657545487147L37.540265360745515,17.804374404568527L38.084327177567914,18.150542728890535L38.62838899439031,18.446153486529376L39.17245081121272,21.605476899978537L39.71651262803511,23.105151815081726L40.26057444485751,20.552854255754927L40.8046362616799,20.82863049541271L41.34869807850231,26.364027863528786L41.89275989532471,29.966091746483073L42.43682171214711,28.821374150883976L42.98088352896951,29.598467429884927L43.5249453457919,44.10891173257654L44.069007162614305,47.10630371317379L44.6130689794367,48.770231554662395L45.157130796259096,44.02161375693482L45.7011926130815,61.03564400087635L46.245254429903895,60.15138197430361L46.7893162467263,58.19514823069156L47.33337806354869,55.199581007671725L47.87743988037109,69.38544454658589L48.42150169719349,68.65687115149659L48.96556351401589,59.579581698771L49.50962533083829,57.34894308922737L50.05368714766069,72.88579267136677L50.59774896448309,69.87910813305338L51.14181078130548,59.23159241427701L51.68587259812789,55.92321037642062L52.229934414950286,57.56923154944631L52.773996231772685,56.48365203681183L53.318058048595084,78.24853554811205L53.862119865417476,68.57145283686853L54.40618168223988,69.71786271998441L54.950243499062275,67.20444588631153L55.494305315884674,79.05929453403448L56.03836713270708,68.82163819303533L56.58242894952947,74.63156945164606L57.12649076635188,73.47336543723515L57.67055258317427,94.15798470236736L58.21461439999667,83.64780125152267L58.75867621681907,78.38606329133236L59.30273803364147,72.74105281522365L59.84679985046387,82.76547002241384L60.390861667286266,75.28852824442639L60.934923484108666,63.953356011382404L61.47898530093106,55.79079824193098L62.023047117753464,70.30626573448976L62.567108934575856,77.2928139656264L63.11117075139826,77.7456590265918L63.65523256822066,72.97504914430039L64.19929438504306,92.34543608141132L64.74335620186545,93.40510615731479L65.28741801868786,70.6747381388736L65.83147983551025,72.84580448525519L66.37554165233266,88.52595040080854L66.91960346915505,90.55968864775845L67.46366528597746,86.70202571135184L68.00772710279985,90.86023856928252L68.55178891962225,106.74571188598715L69.09585073644465,107.52890003916157L69.63991255326705,102.47461228051255L70.18397437008944,95.6794097224543L70.72803618691184,110.75298263836919L71.27209800373424,109.47488325667847L71.81615982055663,100.32247221071628L72.36022163737904,100.62444824614552L72.90428345420143,111.71345460123368L73.44834527102384,111.0538450539672L73.99240708784625,95.27430247983729L74.53646890466864,88.61031884215515L75.08053072149103,99.12421188302149L75.62459253831344,100.39346992440598L76.16865435513583,86.2006410252871L76.71271617195822,83.2460621782746L77.80083980560303,89.19276709223725L78.34490162242544,90.05126337996312L78.88896343924782,106.48165733245578L79.43302525607022,94.41112126800006L79.97708707289262,95.31063722773628L80.52114888971502,93.77157953628519L81.06521070653743,99.48795790476764L81.6092725233598,93.88618165741606L82.15333434018221,102.79131804625041L82.69739615700462,103.60193538361571L83.24145797382702,122.8672471200984L83.78551979064942,114.29012884534974L84.32958160747181,104.22076607311428L84.87364342429422,98.40337550467332L85.41770524111661,101.54553876447477L85.96176705793901,94.24287247977394L86.5058288747614,84.80095367032384L87.0498906915838,84.64916438870888L87.5939525084062,92.83067737792246L88.13801432522861,104.13958791010032L88.682076142051,108.39583365831338L89.2261379588734,110.80396534499134L89.7701997756958,120.64544205735046L90.31426159251819,124.08318636645333L90.8583234093406,99.58053878453512L91.402385226163,101.13741831180258L91.94644704298538,111.78932698020175L92.49050885980779,114.33613715582106L93.0345706766302,113.16753894318346L93.5786324934526,118.50919536652742L94.122694310275,129.38130656052076L94.66675612709739,129.70778477826974L95.21081794391979,125.77072138401617L95.75487976074218,120.31611575934015L96.29894157756459,130.29995141835388L96.84300339438698,126.94628058378014L97.38706521120938,114.8378061967078L97.93112702803178,114.68256221216225L98.47518884485419,125.14186599047068L99.01925066167658,123.49755374797931L99.56331247849897,104.86830765522294L100.10737429532138,99.40658875076505L100.65143611214377,108.21654813167832L101.19549792896618,109.43145961518718L101.73955974578858,97.59131403126985L102.28362156261096,95.93212041518727L103.37174519625577,104.318625938563L103.91580701307818,105.67514837766406L104.45986882990057,119.21158760691189L105.00393064672296,106.45741858614078L105.54799246354537,107.36879754743211L106.09205428036776,106.89155970330829L106.63611609719017,112.51514472785475L107.18017791401256,106.97720827729432L107.72423973083495,116.07002253445367L108.26830154765736,118.02825427866426L108.81236336447976,135.1225176610261L109.35642518130216,128.63988664901578L109.90048699812455,115.64193102733705L110.44454881494696,111.47671007451984L110.98861063176935,111.45083412802687L111.53267244859175,99.80129851089684L112.07673426541416,90.23262294836988L112.62079608223654,91.73962749277837L113.16485789905894,97.511981301455L113.70891971588135,111.65936097202221L114.25298153270376,120.01095605324085L114.79704334952613,126.09207371602552L115.34110516634854,132.59492122498443L115.88516698317095,137.08072272907208L116.42922879999334,113.25236118289067L116.97329061681575,115.35461091762835L117.51735243363814,124.43652177206786L118.06141425046053,129.53966214440197L118.60547606728294,127.31769581790796L119.14953788410534,132.29841173570045L119.69359970092773,141.1152092406796L120.23766151775013,141.2601282652039L120.78172333457253,137.18142654230425L121.32578515139492,131.821869499877L121.86984696821733,140.019198891871L122.41390878503974,137.43271628366384L122.95797060186212,121.48242195641595L123.50203241868452,119.96989657489749L124.04609423550693,131.01082634397733L124.59015605232933,133.07304075870186L125.13421786915171,113.9533979689376L125.67827968597412,109.19112898781086L126.22234150279652,115.5814066865304L126.76640331961892,116.26168290236004L127.31046513644132,103.17951273283857L127.85452695326371,102.32239382598044L128.9426505869085,111.35006611997119L129.4867124037309,112.30507147648322L130.03077422055333,125.23090294486182L130.57483603737572,114.07616129425139L131.1188978541981,114.42246696690033L131.6629596710205,113.43294329698418L132.20702148784292,118.52586409723243L132.75108330466531,111.08331811345715L133.2951451214877,119.73263584121503L133.8392069383101,124.46112720048743L134.3832687551325,142.62840777635577L134.9273305719549,135.53659178872712L135.4713923887773,121.46123166725887L136.0154542055997,117.57948028039436L136.5595160224221,120.0373737363304L137.1035778392445,112.53788700045246L137.6476396560669,103.26636663763524L138.1917014728893,106.14705073399362L138.73576328971168,107.97997522849545L139.2798251065341,118.79251720964353L139.8238869233565,127.81923412306264L140.3679487401789,135.22697976552328L140.91201055700128,138.40597638985054L141.45607237382367,144.31187979264837L142.0001341906461,121.30784947688298L142.54419600746849,124.69063478500512L143.08825782429088,132.08180234081007L143.63231964111327,138.59935020679075L144.1763814579357,135.51901422587815L144.72044327475808,140.0733589280801L145.26450509158047,147.71416999062L145.80856690840287,148.11053717728947L146.35262872522526,144.18602654217466L146.89669054204768,138.0668007623914L147.44075235887007,145.68149390787903L147.9848141756925,144.25281119900194L148.52887599251486,127.79048378600018L149.07293780933728,124.20246113327735L149.61699962615967,134.87807851138857L150.16106144298206,133.74623962857154L150.70512325980448,114.28053316298265L151.24918507662687,111.93006936530007L151.79324689344926,117.79505605748041L152.33730871027166,119.48910654136112L152.88137052709405,106.75275826520176L153.42543234391644,105.38312037691374L154.51355597756125,117.70231406659701L155.05761779438365,116.81008323852141L155.60167961120607,134.73258598229697L156.14574142802846,121.83416765440037L156.68980324485088,119.07971051663642L157.23386506167327,115.64042447541712L157.77792687849563,122.6938571786066L158.32198869531803,117.13392641824046L158.86605051214045,125.13845209894289L159.41011232896284,130.2603573412708L159.95417414578523,150.16381098433817L160.49823596260765,141.18262359756568L161.04229777943004,125.8636138400673L161.58635959625246,127.549786404025L162.13042141307486,139.28372480955557L162.67448322989722,127.21297937827268L163.2185450467196,117.23949427537897L163.76260686354203,111.32542876022592L164.30666868036442,113.52708867368231L164.85073049718685,124.1055241711198L165.39479231400924,133.99931451748546L165.93885413083163,141.75513169717368L166.48291594765405,145.33225304744064L167.02697776447644,150.8265879137449L167.57103958129883,127.38711331087804L168.11510139812123,131.49603897186552L168.65916321494362,138.57886541375174L169.203225031766,145.63109889162385L169.74728684858843,142.50163798408823L170.29134866541082,146.69131947279473L170.83541048223321,154.17881090557685L171.37947229905564,154.2506952706284L171.92353411587803,150.3805346477224L172.46759593270042,143.24822827059523L173.0116577495228,152.26122969890508L173.5557195663452,151.20618650760932L174.0997813831676,131.30325141244316L174.64384319999002,127.27901780409029L175.1879050168124,136.24750657806112L175.7319668336348,137.71937828386635L176.27602865045722,123.05332090217807L176.8200904672796,117.79005443945374L177.364152284102,121.54372501895129L177.90821410092443,123.4713701187207L178.4522759177468,108.94795514072086L178.99633773456918,107.98990247156513L180.084461368214,123.39385203396974L180.62852318503639,119.8149542749281L181.1725850018588,139.91930497182534L181.7166468186812,131.3215656678581L182.26070863550362,131.0924817824891L182.804770452326,125.84097598133873L183.34883226914837,128.8944501282136L183.89289408597077,125.31009752005204L184.4369559027932,133.59240993919292L184.98101771961558,137.53262430188863L185.525079536438,156.03646306747896L186.0691413532604,144.80389762992618L186.61320317008278,131.3930053380044L187.1572649869052,135.50474243630447L187.7013268037276,144.535706389457L188.24538862055,130.46429084233625L188.78945043737238,126.43098496158623L189.33351225419477,119.02624146463738L189.87757407101716,120.68173282608647L190.42163588783959,129.80333769693294L190.96569770466198,139.14624765722883L191.50975952148437,146.39639487497752L192.0538213383068,149.52094789473662L192.59788315512918,155.0533906808071L193.14194497195157,133.6533712255603L193.68600678877397,137.3499365008646L194.23006860559636,143.192302444214L194.77413042241875,151.3375555503046L195.31819223924117,146.4592945556602L195.86225405606356,151.03911807996803L196.40631587288595,159.2884246946617L196.95037768970838,158.78408272379463L197.49443950653077,157.15919381398567L198.03850132335316,150.78099793350614L198.58256314017558,157.82342602034814L199.12662495699794,156.1822162908191L199.67068677382034,143.70682254199542L200.21474859064276,137.6024340093562L200.75881040746515,143.19400130340108L201.30287222428754,140.2299484800943L201.84693404110996,130.7085289206333L202.39099585793235,124.66708139920388L202.93505767475477,127.60803445820962L203.47911949157717,129.08548597985418L204.02318130839953,126.08346787933797L204.56724312522192,122.4126320254074L205.65536675886673,119.47239658566606L206.19942857568915,128.86307053730636L206.74349039251155,147.02964954040817L207.28755220933394,136.966554138447L207.83161402615636,137.13758024569776L208.37567584297875,130.55182703620306L208.91973765980114,137.88038499852595L209.46379947662354,132.71616208709347L210.00786129344593,140.11981999614764L210.55192311026832,142.99767829100216L211.09598492709074,160.38353817855833L211.64004674391313,150.2200373414916L212.18410856073552,137.06458680141654L212.72817037755794,141.94401770151845L213.27223219438034,148.44049785629207L213.81629401120273,142.3470329914819L214.36035582802512,132.94166463398142L214.9044176448475,124.38727037746773L215.4484794616699,127.00885484565661L215.99254127849233,135.69565356655556L216.53660309531472,143.99455648182584L217.0806649121371,150.78049504176133L217.62472672895953,154.71125959169436L218.16878854578192,159.53320563041942L218.7128503626043,136.68840833864084L219.25691217942673,139.74366288312544L219.8009739962491,146.04155932882608L220.3450358130715,155.00087953089073L220.8890976298939,149.2048378472501L221.4331594467163,154.97519452535647L221.9772212635387,162.14620856718193L222.52128308036112,162.2849080046743L223.0653448971835,161.10164635839607L223.60940671400593,154.67571527359897L224.15346853082832,161.86540184285536L224.69753034765068,158.90548532672452L225.24159216447308,154.7687660857298L225.7856539812955,145.5855856157171L226.3297157981179,152.0235928575899L226.8737776149403,145.9658691937109L227.4178394317627,136.8638541841847L227.9619012485851,134.3131228368469L228.5059630654075,133.1961513995666L229.0500248822299,134.6685737712725L229.59408669905227,135.3777160116228L230.1381485158747,132.46500205272875L231.22627214951947,122.97179035058916L231.7703339663419,130.09474300136958L232.3143957831643,148.86718721611848L232.85845759998668,139.18445029423054L233.4025194168091,139.56902194210912L233.9465812336315,136.9585030351077L234.49064305045388,140.2774935813825L235.03470486727628,133.924822346039L235.57876668409867,142.54450346427518L236.12282850092106,145.33063675701365L236.66689031774348,162.4563475256066L237.21095213456587,151.5305508879497L237.75501395138826,138.77917724540484L238.29907576821068,143.9489249727269L238.84313758503308,149.18749233690616L239.38719940185547,140.2558822274405L239.93126121867786,139.46926770735865L240.47532303550025,130.51457350630582L241.01938485232264,132.38729873335538L241.56344666914507,138.6423685485549L242.10750848596746,147.03290806256194L242.65157030278985,153.07351289085716L243.19563211961227,157.1306430093789L243.73969393643466,161.8944099119037L244.28375575325708,138.93678938938996L244.82781757007947,142.57817784906035L245.37187938690184,148.32536464995002L245.91594120372423,158.24931121218145L246.46000302054665,150.42991887367089L247.00406483736904,157.43145965619283L247.54812665419146,163.57806651803222L248.09218847101386,164.04358890718393L248.63625028783625,163.9287452018201L249.18031210465867,158.79881397449148L249.72437392148106,165.21110766842563L250.26843573830342,161.6045369744495L250.81249755512584,160.7427063599247L251.35655937194824,150.49368696586552L251.90062118877063,155.76317354394183L252.44468300559305,148.13990351429806L252.98874482241544,138.51514261002697L253.53280663923783,137.55713006999787L254.07686845606025,134.46842099641344L254.62093027288265,137.01126336457918L255.16499208970504,137.48564083880862L255.70905390652743,136.7058374879013L256.2531157233498,128.3676031336766L256.79717754017224,133.87021789493426L257.3412393569946,151.3389566735311L257.885301173817,141.1838530449291L258.42936299063945,142.22060618583282L258.9734248074618,139.17745140384963L259.51748662428423,141.84691831547445L260.06154844110665,136.00306084680994L260.605610257929,144.1693768793806L261.14967207475144,147.4561495757092L261.6937338915738,165.55326417590848L262.2377957083962,154.93649904913778L262.78185752521864,141.05855937637853L263.325919342041,146.5170174057893L263.8699811588634,152.11991995959877L264.41404297568585,143.74779885450542L264.9581047925082,139.56547642485597L265.50216660933063,132.40260768225446L266.046228426153,134.094349484597L266.5902902429754,139.38322653169615L267.1343520597978,148.4923416676315L267.6784138766202,155.91788237911192L268.2224756934426,161.1536516449685L268.766537510265,165.21374040446216L269.3105993270874,138.70522971312846L269.8546611439098,142.67095444866882L270.3987229607322,148.3181789182378L270.9427847775546,159.55982933551377L271.48684659437697,151.52513117287927L272.0309084111994,159.4981094091056L272.5749702280218,165.27380899683007L273.1190320448442,165.69536514260648L273.6630938616666,165.2181851771433L274.207155678489,159.5550468414181L274.7512174953114,165.99515617880982L275.2952793121338,162.1289620581121L275.8393411289562,164.55376965383144L276.3834029457786,152.57781666768756L276.92746476260095,157.61351438676584L277.47152657942337,149.48139476970027L278.0155883962458,142.2927126568692L278.5596502130682,141.95707901723694L279.1037120298906,137.67648493985388L279.647773846713,139.74438029687482L280.1918356635354,139.9609173261998L280.7358974803578,138.5398541462792" fill="none"></path></g></g></g></g><g opacity="0.2"><g><g><g><path style="fill: none;" stroke="rgb(255, 112, 67)" stroke-width="2px" d="M27.20309084111994,15.827953715304979L27.747152657942337,16.01285438018946L28.291214474764736,15.536794863722411L28.835276291587135,14.228111353783435L29.379338108409534,15.789021795410713L29.923399925231934,15.920352138520684L30.467461742054333,16.15591620849424L31.011523558876732,14.049855069894244L31.55558537569913,16.05978032096866L32.09964719252153,16.346267342163905L32.64370900934393,16.2338838667358L33.18777082616633,14.829895016895684L33.73183264298873,16.327112837575925L34.27589445981113,16.39521774277763L34.819956276633526,17.430391538152787L35.36401809345592,15.268579890264215L35.90807991027832,16.913271823503944L36.45214172710072,16.439236766871396L36.99620354392312,18.681196260515634L37.540265360745515,18.522405936573556L38.084327177567914,18.669776230679975L38.62838899439031,18.889559895789716L39.17245081121272,26.344399644822538L39.71651262803511,25.35464642265735L40.26057444485751,16.72442605740351L40.8046362616799,21.24229367883974L41.34869807850231,34.66710975213825L41.89275989532471,35.369182040898096L42.43682171214711,27.10429881193201L42.98088352896951,30.764106918898708L43.5249453457919,65.87457337479282L44.069007162614305,51.60239108768908L44.6130689794367,51.26612311825571L45.157130796259096,36.89868740047733L45.7011926130815,86.55668863558066L46.245254429903895,58.824988957246L46.7893162467263,55.2607976455396L47.33337806354869,50.7062302009497L47.87743988037109,90.66423977594464L48.42150169719349,67.56401106129768L48.96556351401589,45.96364753788377L49.50962533083829,54.002985177595775L50.05368714766069,96.19106703336057L50.59774896448309,65.36908132688572L51.14181078130548,43.260318838879286L51.68587259812789,50.96063732015207L52.229934414950286,60.038263308830764L52.773996231772685,54.855282767920954L53.318058048595084,110.89586081432935L53.862119865417476,54.055828770198936L54.40618168223988,71.4374775446441L54.950243499062275,63.43432063582049L55.494305315884674,96.84156750556717L56.03836713270708,53.46515368156318L56.58242894952947,83.34646633955289L57.12649076635188,71.73605941561982L57.67055258317427,125.18491360005393L58.21461439999667,67.88252607525926L58.75867621681907,70.49345635104802L59.30273803364147,64.2735371010612L59.84679985046387,97.8020958331984L60.390861667286266,64.07311557744553L60.934923484108666,46.95059766181657L61.47898530093106,43.54696158775411L62.023047117753464,92.07946697332758L62.567108934575856,87.77263631233151L63.11117075139826,78.42492661803968L63.65523256822066,65.81913432086338L64.19929438504306,121.40101648707758L64.74335620186545,94.99461127117011L65.28741801868786,36.57918611121176L65.83147983551025,76.1024040048276L66.37554165233266,112.04616927413846L66.91960346915505,93.61029601818322L67.46366528597746,80.91553130674191L68.00772710279985,97.09755785617855L68.55178891962225,130.57392186104417L69.09585073644465,108.70368226892326L69.63991255326705,94.89318064253894L70.18397437008944,85.48660588536697L70.72803618691184,133.36334201224153L71.27209800373424,107.55773418414229L71.81615982055663,86.59385564177305L72.36022163737904,101.07741229928938L72.90428345420143,128.3469641338659L73.44834527102384,110.0644307330675L73.99240708784625,71.60498861864247L74.53646890466864,78.61434338563188L75.08053072149103,114.89505144432097L75.62459253831344,102.2973569864827L76.16865435513583,64.91139767660879L76.71271617195822,78.81419390775577L77.80083980560303,98.11282446318111L78.34490162242544,91.339007811552L78.88896343924782,131.1272482611947L79.43302525607022,76.30531717131649L79.97708707289262,96.65991116734054L80.52114888971502,91.4629929991086L81.06521070653743,108.06252545749129L81.6092725233598,85.4835172863887L82.15333434018221,116.14902262950189L82.69739615700462,104.81786138966373L83.24145797382702,151.76521472482244L83.78551979064942,101.42445143322682L84.32958160747181,89.116721914761L84.87364342429422,89.67728965201185L85.41770524111661,106.25878365417688L85.96176705793901,83.28887305272264L86.5058288747614,70.63807545614858L87.0498906915838,84.42148046628651L87.5939525084062,105.10294686174277L88.13801432522861,121.10295370836712L88.682076142051,114.78020228063289L89.2261379588734,114.4161628750083L89.7701997756958,135.4076571258892L90.31426159251819,129.2398028301076L90.8583234093406,62.826567411657805L91.402385226163,103.47273760270372L91.94644704298538,127.76718998280053L92.49050885980779,118.15635241925003L93.0345706766302,111.41464162422703L93.5786324934526,126.52168000154332L94.122694310275,145.68947335151069L94.66675612709739,130.1975021048932L95.21081794391979,119.8651262926357L95.75487976074218,112.13420732232603L96.29894157756459,145.27570490687447L96.84300339438698,121.91577433191952L97.38706521120938,96.6750946160993L97.93112702803178,114.44969623534388L98.47518884485419,140.83082165793334L99.01925066167658,121.03108538424232L99.56331247849897,76.9244385160883L100.10737429532138,91.21401039407814L100.65143611214377,121.43148720304816L101.19549792896618,111.25382684045046L101.73955974578858,79.83109565539388L102.28362156261096,93.44332999106337L103.37174519625577,116.89838422362664L103.91580701307818,107.70993203631559L104.45986882990057,139.5162464507837L105.00393064672296,87.3261650549841L105.54799246354537,108.73586598936919L106.09205428036776,106.17570293712252L106.63611609719017,120.95052226467446L107.18017791401256,98.67030360145368L107.72423973083495,129.70924392019262L108.26830154765736,120.96560189498015L108.81236336447976,160.76391273456886L109.35642518130216,118.91594013100034L109.90048699812455,96.14499759481903L110.44454881494696,105.22887864529407L110.98861063176935,111.41202020828749L111.53267244859175,82.32699508520174L112.07673426541416,75.87960960457937L112.62079608223654,94.00013430939109L113.16485789905894,106.17051201446995L113.70891971588135,132.8804304778731L114.25298153270376,132.53834867506885L114.79704334952613,135.2137502102025L115.34110516634854,142.3491924884228L115.88516698317095,143.80942498520352L116.42922879999334,77.50981886361842L116.97329061681575,118.50798551973499L117.51735243363814,138.05938805372716L118.06141425046053,137.1943727029032L118.60547606728294,123.98474632816689L119.14953788410534,139.76948561238925L119.69359970092773,154.34040549814827L120.23766151775013,141.47750680199027L120.78172333457253,131.06337395795487L121.32578515139492,123.7825339362361L121.86984696821733,152.31519297986205L122.41390878503974,133.5529923713531L122.95797060186212,97.55698046554411L123.50203241868452,117.70110850261979L124.04609423550693,147.57222099759719L124.59015605232933,136.1663623807886L125.13421786915171,85.27393378429126L125.67827968597412,102.04772551612069L126.22234150279652,125.16682323460974L126.76640331961892,117.28209722610447L127.31046513644132,83.55625747855643L127.85452695326371,101.03671546569323L128.9426505869085,124.89157456095731L129.4867124037309,113.73757951125131L130.03077422055333,144.61965014742964L130.57483603737572,97.34404881833578L131.1188978541981,114.94192547587367L131.6629596710205,111.94865779210997L132.20702148784292,126.16524529760471L132.75108330466531,99.91949913779425L133.2951451214877,132.70661243285184L133.8392069383101,131.553864239396L134.3832687551325,169.87932864015826L134.9273305719549,124.89886780728416L135.4713923887773,100.34819148505659L136.0154542055997,111.7568532000976L136.5595160224221,123.7242139202345L137.1035778392445,101.28865689663563L137.6476396560669,89.35908609340942L138.1917014728893,110.4680768785312L138.73576328971168,110.72936197024823L139.2798251065341,135.01133018136562L139.8238869233565,141.35930949319132L140.3679487401789,146.33859822921437L140.91201055700128,143.17447132634138L141.45607237382367,153.1707348968451L142.0001341906461,86.80180400323493L142.54419600746849,129.76481274718836L143.08825782429088,143.16855367451745L143.63231964111327,148.3756720057617L144.1763814579357,130.89851025450926L144.72044327475808,146.90487598138301L145.26450509158047,159.17538658442993L145.80856690840287,148.70508795729367L146.35262872522526,138.29926058950232L146.89669054204768,128.88796209271655L147.44075235887007,157.10353362611036L147.9848141756925,142.10978713568636L148.52887599251486,103.09699266649757L149.07293780933728,118.82042715419307L149.61699962615967,150.8915045785554L150.16106144298206,132.04848130434598L150.70512325980448,85.08197346459929L151.24918507662687,108.40437366877617L151.79324689344926,126.59253609575087L152.33730871027166,122.03018226718213L152.88137052709405,87.64823585096272L153.42543234391644,103.32866354448169L154.51355597756125,136.18110460112186L155.05761779438365,115.47173699640805L155.60167961120607,161.61634009796035L156.14574142802846,102.48654016255554L156.68980324485088,114.94802480999043L157.23386506167327,110.48149541358809L157.77792687849563,133.27400623339082L158.32198869531803,108.7940302776912L158.86605051214045,137.14524061999663L159.41011232896284,137.94321520476268L159.95417414578523,180.01899144893918L160.49823596260765,127.7108425174069L161.04229777943004,102.88509920381973L161.58635959625246,130.07904524996158L162.13042141307486,156.88463241785155L162.67448322989722,109.10686123134823L163.2185450467196,102.2792666210385L163.76260686354203,102.45433048749636L164.30666868036442,116.82957854386684L164.85073049718685,139.97317741727602L165.39479231400924,148.84000003703395L165.93885413083163,153.388857466706L166.48291594765405,150.69793507284118L167.02697776447644,159.06809021320134L167.57103958129883,92.22790140657779L168.11510139812123,137.6594274633468L168.65916321494362,149.20310507658107L169.203225031766,156.209449108432L169.74728684858843,137.80744662278477L170.29134866541082,152.9758417058544L170.83541048223321,165.41004805475006L171.37947229905564,154.35852181820576L171.92353411587803,144.57529371336346L172.46759593270042,132.5497687049045L173.0116577495228,165.78073184136994L173.5557195663452,149.62362172066565L174.0997813831676,101.4488487696939L174.64384319999002,121.242667391561L175.1879050168124,149.70023973901755L175.7319668336348,139.92718584257426L176.27602865045722,101.05423482964565L176.8200904672796,109.89515474536725L177.364152284102,127.17423088819767L177.90821410092443,126.36283776837473L178.4522759177468,87.16283267372106L178.99633773456918,106.55282346783162L180.084461368214,146.49977637757658L180.62852318503639,114.44660763636561L181.1725850018588,170.07583101717123L181.7166468186812,118.42495671190717L182.26070863550362,130.74885595443573L182.804770452326,117.96371727961322L183.34883226914837,133.47466134852584L183.89289408597077,119.93356860780982L184.4369559027932,146.0158785679042L184.98101771961558,143.44294584593223L185.525079536438,183.7922212158645L186.0691413532604,127.95504947359697L186.61320317008278,111.27666690012175L187.1572649869052,141.67234808375443L187.7013268037276,158.08215231918578L188.24538862055,109.35716752165507L188.78945043737238,120.38102614046119L189.33351225419477,107.91912621921409L189.87757407101716,123.16496986826006L190.42163588783959,143.48574500320262L190.96569770466198,153.16061259767258L191.50975952148437,157.27161570160052L192.0538213383068,154.20777742437517L192.59788315512918,163.35205485991284L193.14194497195157,101.55334204269009L193.68600678877397,142.894784413821L194.23006860559636,151.955851359238L194.77413042241875,163.55543520944047L195.31819223924117,139.14190306369375L195.86225405606356,157.90885336642978L196.40631587288595,171.66238461670218L196.95037768970838,158.02756976749404L197.49443950653077,154.72186044927224L198.03850132335316,141.2137041127868L198.58256314017558,168.3870681506112L199.12662495699794,153.72040169652553L199.67068677382034,124.99373191875985L200.21474859064276,128.4458512103973L200.75881040746515,151.5813522444685L201.30287222428754,135.78386924513407L201.84693404110996,116.42639958144187L202.39099585793235,115.60491011705967L202.93505767475477,132.01946404671813L203.47911949157717,131.301663262321L204.02318130839953,121.5804407285636L204.56724312522192,116.90637824451159L205.65536675886673,115.0620434260541L206.19942857568915,142.94908146476686L206.74349039251155,174.27951804506077L207.28755220933394,121.87191103550532L207.83161402615636,137.39411940657402L208.37567584297875,120.67319722196099L208.91973765980114,148.8732219420104L209.46379947662354,124.96982771994479L210.00786129344593,151.22530685972885L210.55192311026832,147.31446573328392L211.09598492709074,186.46232800989253L211.64004674391313,134.97478608589154L212.18410856073552,117.33141099130388L212.72817037755794,149.26316405167128L213.27223219438034,158.18521808845253L213.81629401120273,133.20683569426657L214.36035582802512,118.83361209773061L214.9044176448475,111.55567899269731L215.4484794616699,130.94123154793994L215.99254127849233,148.72585164790397L216.53660309531472,156.44291085473125L217.0806649121371,160.95940288166457L217.62472672895953,160.60740641659393L218.16878854578192,166.76612468850698L218.7128503626043,102.42121240097296L219.25691217942673,144.32654469985238L219.8009739962491,155.48840399737702L220.3450358130715,168.4398598339878L220.8890976298939,140.51077532178925L221.4331594467163,163.63072954251598L221.9772212635387,172.90272962992012L222.52128308036112,162.49295716091282L223.0653448971835,159.3267538889788L223.60940671400593,145.03681864640328L224.15346853082832,172.64993169674003L224.69753034765068,154.46561055252823L225.24159216447308,148.56368722423773L225.7856539812955,131.81081491069816L226.3297157981179,161.68060372039915L226.8737776149403,136.87928369789228L227.4178394317627,123.21083166989551L227.9619012485851,130.48702581584018L228.5059630654075,131.5206942436461L229.0500248822299,136.87720732883128L229.59408669905227,136.44142937214818L230.1381485158747,128.0959311143877L231.22627214951947,108.73197279737977L231.7703339663419,140.7791719775403L232.3143957831643,177.0258535382418L232.85845759998668,124.66034491139867L233.4025194168091,140.14587941392696L233.9465812336315,133.04272467460564L234.49064305045388,145.2559794007947L235.03470486727628,124.39581549302379L235.57876668409867,155.4740251416294L236.12282850092106,149.50983669612134L236.66689031774348,188.144913678496L237.21095213456587,135.14185593146445L237.75501395138826,119.65211678158757L238.29907576821068,151.70354656370992L238.84313758503308,157.04534338317507L239.38719940185547,126.85846706324193L239.93126121867786,138.28934592723596L240.47532303550025,117.0825322047265L241.01938485232264,135.1963865739297L241.56344666914507,148.0249732713542L242.10750848596746,159.6187173335725L242.65157030278985,162.13442013329993L243.19563211961227,163.21633818716145L243.73969393643466,169.04006026569104L244.28375575325708,104.5003586056194L244.82781757007947,148.040260538566L245.37187938690184,156.9461448512845L245.91594120372423,173.13523105552864L246.46000302054665,138.70083036590503L247.00406483736904,167.93377082997569L247.54812665419146,172.79797681079128L248.09218847101386,164.74187249091148L248.63625028783625,163.75647964377444L249.18031210465867,151.10391713349853L249.72437392148106,174.8295482093269L250.26843573830342,156.19468093348544L250.81249755512584,159.4499604381375L251.35655937194824,135.1201578747767L251.90062118877063,163.66740341105637L252.44468300559305,136.7049984698323L252.98874482241544,124.07800125362029L253.53280663923783,136.12011125995417L254.07686845606025,129.83535738603678L254.62093027288265,140.82552691682773L255.16499208970504,138.19720705015283L255.70905390652743,135.53613246154026L256.2531157233498,115.8602516023395L256.79717754017224,142.1241400368207L257.3412393569946,177.54206484142645L257.885301173817,125.95119760202607L258.42936299063945,143.77573589718835L258.9734248074618,134.6127192308749L259.51748662428423,145.85111868291168L260.06154844110665,127.23727464381311L260.605610257929,156.4188509282366L261.14967207475144,152.38630862020221L261.6937338915738,192.6989360762074L262.2377957083962,139.01135135898164L262.78185752521864,120.24164986723973L263.325919342041,154.70470444990553L263.8699811588634,160.52427379031303L264.41404297568585,131.1896171968653L264.9581047925082,133.29199278038197L265.50216660933063,121.65830456835212L266.046228426153,136.63196218811066L266.5902902429754,147.31654210234493L267.1343520597978,162.1560143715346L267.6784138766202,167.0561934463325L268.2224756934426,169.00730554375332L268.766537510265,171.30387354370257L269.3105993270874,98.94246367612784L269.8546611439098,148.61954155197935L270.3987229607322,156.78901562259125L270.9427847775546,176.42230496142767L271.48684659437697,139.4730839289276L272.0309084111994,171.4575767634451L272.5749702280218,173.93735837841675L273.1190320448442,166.32769936127107L273.6630938616666,164.5024152289485L274.207155678489,151.06033933783021L274.7512174953114,175.65532018489748L275.2952793121338,156.3296708770655L275.8393411289562,168.19098104741045L276.3834029457786,134.61388718847172L276.92746476260095,165.16706096538334L277.47152657942337,137.2832153441019L278.0155883962458,131.50968948762267L278.5596502130682,141.45362855778848L279.1037120298906,131.25559382377944L279.647773846713,142.84622333240623L280.1918356635354,140.28572287018716L280.7358974803578,136.40825937639823" fill="none"></path></g></g></g></g></g></g><g transform="translate(30, 176)" clip-path="url(#clip_1)"><clipPath id="clip_1"><rect width="299" height="23"></rect></clipPath><g><g><line x1="0" y1="0" x2="0" y2="5" style="visibility: inherit;" fill="rgb(0, 0, 0)" stroke="rgb(204, 204, 204)" stroke-width="1px"></line><line x1="27.20309084111994" y1="0" x2="27.20309084111994" y2="5" style="visibility: inherit;" fill="rgb(0, 0, 0)" stroke="rgb(204, 204, 204)" stroke-width="1px"></line><line x1="54.40618168223988" y1="0" x2="54.40618168223988" y2="5" style="visibility: inherit;" fill="rgb(0, 0, 0)" stroke="rgb(204, 204, 204)" stroke-width="1px"></line><line x1="81.6092725233598" y1="0" x2="81.6092725233598" y2="5" style="visibility: inherit;" fill="rgb(0, 0, 0)" stroke="rgb(204, 204, 204)" stroke-width="1px"></line><line x1="108.81236336447976" y1="0" x2="108.81236336447976" y2="5" style="visibility: inherit;" fill="rgb(0, 0, 0)" stroke="rgb(204, 204, 204)" stroke-width="1px"></line><line x1="136.0154542055997" y1="0" x2="136.0154542055997" y2="5" style="visibility: inherit;" fill="rgb(0, 0, 0)" stroke="rgb(204, 204, 204)" stroke-width="1px"></line><line x1="163.2185450467196" y1="0" x2="163.2185450467196" y2="5" style="visibility: inherit;" fill="rgb(0, 0, 0)" stroke="rgb(204, 204, 204)" stroke-width="1px"></line><line x1="190.42163588783959" y1="0" x2="190.42163588783959" y2="5" style="visibility: inherit;" fill="rgb(0, 0, 0)" stroke="rgb(204, 204, 204)" stroke-width="1px"></line><line x1="217.62472672895953" y1="0" x2="217.62472672895953" y2="5" style="visibility: inherit;" fill="rgb(0, 0, 0)" stroke="rgb(204, 204, 204)" stroke-width="1px"></line><line x1="244.82781757007947" y1="0" x2="244.82781757007947" y2="5" style="visibility: inherit;" fill="rgb(0, 0, 0)" stroke="rgb(204, 204, 204)" stroke-width="1px"></line><line x1="272.0309084111994" y1="0" x2="272.0309084111994" y2="5" style="visibility: inherit;" fill="rgb(0, 0, 0)" stroke="rgb(204, 204, 204)" stroke-width="1px"></line><line x1="299.23399925231934" y1="0" x2="299.23399925231934" y2="5" style="visibility: inherit;" fill="rgb(0, 0, 0)" stroke="rgb(204, 204, 204)" stroke-width="1px"></line></g><g transform="translate(0, 8)"><text style="text-anchor: middle; visibility: hidden; font-family: Roboto, sans-serif; font-size: 12px; font-weight: 200;" x="0" y="0" dx="0em" dy="0.95em" fill="rgb(33, 33, 33)" stroke="none" stroke-width="1px">-50</text><text style="text-anchor: middle; visibility: inherit; font-family: Roboto, sans-serif; font-size: 12px; font-weight: 200;" x="27.20309084111994" y="0" dx="0em" dy="0.95em" fill="rgb(33, 33, 33)" stroke="none" stroke-width="1px">0</text><text style="text-anchor: middle; visibility: inherit; font-family: Roboto, sans-serif; font-size: 12px; font-weight: 200;" x="54.40618168223988" y="0" dx="0em" dy="0.95em" fill="rgb(33, 33, 33)" stroke="none" stroke-width="1px">50</text><text style="text-anchor: middle; visibility: inherit; font-family: Roboto, sans-serif; font-size: 12px; font-weight: 200;" x="81.6092725233598" y="0" dx="0em" dy="0.95em" fill="rgb(33, 33, 33)" stroke="none" stroke-width="1px">100</text><text style="text-anchor: middle; visibility: inherit; font-family: Roboto, sans-serif; font-size: 12px; font-weight: 200;" x="108.81236336447976" y="0" dx="0em" dy="0.95em" fill="rgb(33, 33, 33)" stroke="none" stroke-width="1px">150</text><text style="text-anchor: middle; visibility: inherit; font-family: Roboto, sans-serif; font-size: 12px; font-weight: 200;" x="136.0154542055997" y="0" dx="0em" dy="0.95em" fill="rgb(33, 33, 33)" stroke="none" stroke-width="1px">200</text><text style="text-anchor: middle; visibility: inherit; font-family: Roboto, sans-serif; font-size: 12px; font-weight: 200;" x="163.2185450467196" y="0" dx="0em" dy="0.95em" fill="rgb(33, 33, 33)" stroke="none" stroke-width="1px">250</text><text style="text-anchor: middle; visibility: inherit; font-family: Roboto, sans-serif; font-size: 12px; font-weight: 200;" x="190.42163588783959" y="0" dx="0em" dy="0.95em" fill="rgb(33, 33, 33)" stroke="none" stroke-width="1px">300</text><text style="text-anchor: middle; visibility: inherit; font-family: Roboto, sans-serif; font-size: 12px; font-weight: 200;" x="217.62472672895953" y="0" dx="0em" dy="0.95em" fill="rgb(33, 33, 33)" stroke="none" stroke-width="1px">350</text><text style="text-anchor: middle; visibility: inherit; font-family: Roboto, sans-serif; font-size: 12px; font-weight: 200;" x="244.82781757007947" y="0" dx="0em" dy="0.95em" fill="rgb(33, 33, 33)" stroke="none" stroke-width="1px">400</text><text style="text-anchor: middle; visibility: inherit; font-family: Roboto, sans-serif; font-size: 12px; font-weight: 200;" x="272.0309084111994" y="0" dx="0em" dy="0.95em" fill="rgb(33, 33, 33)" stroke="none" stroke-width="1px">450</text><text style="text-anchor: middle; visibility: hidden; font-family: Roboto, sans-serif; font-size: 12px; font-weight: 200;" x="299.23399925231934" y="0" dx="0em" dy="0.95em" fill="rgb(33, 33, 33)" stroke="none" stroke-width="1px">500</text></g><line x1="0" y1="0" x2="299.23399925231934" y2="0" fill="rgb(0, 0, 0)" stroke="rgb(204, 204, 204)" stroke-width="1px"></line></g></g></g></g></svg>